<svg xmlns="http://www.w3.org/2000/svg" data-name="Layer 2" viewBox="0 0 651.99 109.13"><path fill="#fcfcfc" d="M96.67 16.25h4.97l-1.82 10.42 13.52-15.23h-4.6l1.98-9.82-14.05 14.63zm-52.63 92.74c-12.77 0-22.98-3.04-30.63-9.13C5.75 93.77 1.28 85.08.01 73.79h15.17c.88 7.36 3.83 12.96 8.84 16.79 5.01 3.83 11.78 5.74 20.32 5.74 7.17 0 12.59-1.33 16.27-3.98 3.68-2.65 5.52-6.43 5.52-11.34 0-4.42-1.23-7.93-3.68-10.53-2.46-2.6-6.33-4.74-11.63-6.41l-18.41-5.89c-9.43-3.04-16.35-6.87-20.77-11.49-4.42-4.61-6.63-10.46-6.63-17.53 0-5.99 1.5-11.14 4.49-15.46S16.72 6.01 22.17 3.6C27.62 1.2 33.98-.01 41.24-.01c11.19 0 20.15 2.82 26.88 8.47 6.72 5.65 10.58 13.48 11.56 23.49H64.51c-1.18-6.68-3.73-11.56-7.66-14.65s-9.33-4.64-16.2-4.64c-6.48 0-11.54 1.28-15.17 3.83-3.63 2.55-5.45 6.14-5.45 10.75 0 3.73 1.2 6.85 3.61 9.35s6.41 4.64 12 6.41l19.29 6.19c8.93 2.85 15.54 6.73 19.81 11.63 4.27 4.91 6.41 11.1 6.41 18.56 0 9.43-3.24 16.72-9.72 21.87-6.48 5.16-15.61 7.73-27.39 7.73zm53.31-1.33V32.55h15.32v75.11H97.35zm27.83-62.89V32.55h51.55v12.22h-51.55zm40.35 64.36c-8.74 0-15.15-2.04-19.22-6.11-4.08-4.07-6.11-10.09-6.11-18.04V15.32l15.17-5.74v75.55c0 3.93 1.03 6.83 3.09 8.69 2.06 1.87 5.4 2.8 10.01 2.8 1.77 0 3.34-.15 4.71-.44 1.37-.29 2.55-.64 3.54-1.03v12.37c-1.08.49-2.6.88-4.57 1.18-1.97.29-4.17.44-6.63.44zm56.27 0c-7.56 0-14.21-1.67-19.96-5.01-5.74-3.34-10.24-7.95-13.48-13.84s-4.86-12.67-4.86-20.32 1.6-14.56 4.79-20.4c3.19-5.84 7.68-10.38 13.48-13.62 5.79-3.24 12.42-4.86 19.88-4.86s13.57 1.55 18.92 4.64c5.35 3.09 9.47 7.39 12.37 12.89 2.9 5.5 4.34 12.03 4.34 19.59 0 1.18-.02 2.28-.07 3.31-.05 1.03-.17 2.09-.37 3.17h-63.03V63.19h52.28l-3.83 4.57c0-8.05-1.82-14.19-5.45-18.41-3.63-4.22-8.69-6.33-15.17-6.33-6.97 0-12.5 2.38-16.57 7.14-4.08 4.76-6.11 11.37-6.11 19.81S201 85.19 205.07 90c4.07 4.81 9.74 7.22 17.01 7.22 4.42 0 8.25-.91 11.49-2.73 3.24-1.82 5.64-4.49 7.22-8.03h14.43c-2.45 7.07-6.6 12.62-12.44 16.64-5.84 4.03-12.84 6.04-20.99 6.04zm91.16-.14c-7.07 0-12.96-1.69-17.67-5.08-4.71-3.39-7.81-8.12-9.28-14.21l1.47-.29v18.26H272.9V1.62h15.32v48.16l-1.62-.44c1.67-5.69 4.93-10.16 9.79-13.4 4.86-3.24 10.73-4.86 17.6-4.86s12.64 1.62 17.6 4.86c4.96 3.24 8.79 7.76 11.49 13.55 2.7 5.79 4.05 12.57 4.05 20.32s-1.42 14.73-4.27 20.62c-2.85 5.89-6.83 10.46-11.93 13.7-5.11 3.24-11.1 4.86-17.97 4.86zm-3.24-12.67c6.68 0 11.98-2.36 15.91-7.07 3.93-4.71 5.89-11.19 5.89-19.44s-1.97-14.51-5.89-19.07c-3.93-4.57-9.28-6.85-16.05-6.85s-12 2.33-15.98 7c-3.98 4.66-5.97 11.12-5.97 19.37s1.99 14.41 5.97 19.07c3.98 4.67 9.35 7 16.13 7zm86.6 12.81c-7.66 0-14.38-1.69-20.18-5.08-5.79-3.39-10.31-8.05-13.55-13.99-3.24-5.94-4.86-12.69-4.86-20.25s1.64-14.38 4.93-20.18c3.29-5.79 7.81-10.33 13.55-13.62 5.74-3.29 12.45-4.93 20.1-4.93s14.53 1.65 20.32 4.93c5.79 3.29 10.28 7.83 13.48 13.62 3.19 5.79 4.79 12.52 4.79 20.18s-1.6 14.31-4.79 20.25c-3.19 5.94-7.68 10.6-13.48 13.99-5.79 3.39-12.57 5.08-20.32 5.08zm0-12.52c4.61 0 8.62-1.13 12-3.39 3.39-2.26 6.06-5.4 8.03-9.43 1.96-4.03 2.95-8.74 2.95-14.14 0-8.05-2.14-14.41-6.41-19.07s-9.79-7-16.57-7-12.15 2.36-16.42 7.07c-4.27 4.71-6.41 11.05-6.41 19 0 5.4.96 10.11 2.87 14.14 1.91 4.03 4.61 7.17 8.1 9.43 3.48 2.26 7.44 3.39 11.86 3.39zm87.04 12.52c-7.66 0-14.38-1.69-20.18-5.08-5.79-3.39-10.31-8.05-13.55-13.99-3.24-5.94-4.86-12.69-4.86-20.25s1.64-14.38 4.93-20.18c3.29-5.79 7.81-10.33 13.55-13.62 5.74-3.29 12.45-4.93 20.1-4.93s14.53 1.65 20.32 4.93c5.79 3.29 10.28 7.83 13.48 13.62 3.19 5.79 4.79 12.52 4.79 20.18s-1.6 14.31-4.79 20.25c-3.19 5.94-7.68 10.6-13.48 13.99-5.79 3.39-12.57 5.08-20.32 5.08zm0-12.52c4.61 0 8.62-1.13 12-3.39 3.39-2.26 6.06-5.4 8.03-9.43 1.96-4.03 2.95-8.74 2.95-14.14 0-8.05-2.14-14.41-6.41-19.07s-9.79-7-16.57-7-12.15 2.36-16.42 7.07c-4.27 4.71-6.41 11.05-6.41 19 0 5.4.96 10.11 2.87 14.14 1.91 4.03 4.61 7.17 8.1 9.43 3.48 2.26 7.44 3.39 11.86 3.39zm81.59 12.52c-9.82 0-17.62-2.16-23.42-6.48-5.79-4.32-9.08-10.41-9.87-18.26h14.14c.69 4.32 2.67 7.64 5.97 9.94 3.29 2.31 7.78 3.46 13.48 3.46 5.01 0 8.84-.88 11.49-2.65 2.65-1.77 3.98-4.27 3.98-7.51 0-2.36-.76-4.34-2.28-5.97-1.52-1.62-4.49-2.97-8.91-4.05l-12.08-2.8c-7.56-1.86-13.18-4.64-16.86-8.32-3.68-3.68-5.52-8.22-5.52-13.62 0-6.77 2.53-12.1 7.58-15.98 5.06-3.88 12-5.82 20.84-5.82s15.78 1.96 21.13 5.89c5.35 3.93 8.37 9.43 9.06 16.49h-14.14c-.59-3.53-2.28-6.26-5.08-8.17-2.8-1.91-6.6-2.87-11.41-2.87-4.52 0-7.98.81-10.38 2.43-2.41 1.62-3.61 3.85-3.61 6.7 0 2.36.91 4.32 2.72 5.89 1.82 1.57 4.84 2.9 9.06 3.98l12.37 3.09c7.17 1.77 12.57 4.64 16.2 8.62 3.63 3.98 5.45 8.76 5.45 14.36 0 6.77-2.63 12.08-7.88 15.91s-12.59 5.74-22.02 5.74zm35.49-64.36V32.55h51.55v12.22h-51.55zm40.35 64.36c-8.74 0-15.15-2.04-19.22-6.11-4.08-4.07-6.11-10.09-6.11-18.04V15.32l15.17-5.74v75.55c0 3.93 1.03 6.83 3.09 8.69 2.06 1.87 5.4 2.8 10.01 2.8 1.77 0 3.34-.15 4.71-.44 1.37-.29 2.55-.64 3.54-1.03v12.37c-1.08.49-2.6.88-4.57 1.18-1.97.29-4.17.44-6.63.44z" data-name="Layer 1"/></svg>