<svg xmlns="http://www.w3.org/2000/svg" width="592" height="593" fill="none"><mask id="a" fill="#fff"><path fill-rule="evenodd" d="m324.835 34.23.06 33.404-11.653 105.4-11.655 105.401 1.318 1.318 1.317 1.315.672-.855.67-.857 64.927-81.195 64.927-81.194 24.856-24.644 24.856-24.644 20.033 20.078 20.031 20.081-28.891 28.202-28.89 28.205-13.248 10.582-13.248 10.582-63.723 50.78-63.722 50.781-.66 2.851-.661 2.853 5.8-1.053 5.799-1.052 100.667-11.26 100.667-11.259H592v55.5h-79.601l-92.268-10.232-92.27-10.235-6.68-.941-6.681-.944v5.186l60.125 48.139 60.125 48.14 23.639 19.86 23.639 19.863 21.544 21.775 21.544 21.774-19.303 19.386-19.306 19.386-26.192-25.037-26.192-25.036-15.914-20.556-15.912-20.555-16.985-20.556-16.985-20.556-32.566-40.924-32.567-40.924-.61 3.129-.611 3.128 11.403 103.206 11.402 103.205v69.597h-55.5l.004-41.625.006-41.625 10.272-95.464 10.273-95.466v-5.719l-1.837.687-1.836.684-29.357 37-29.356 37-9.209 11.306-9.211 11.305-27.158 33.917-27.158 33.917-24.426 22.74-24.424 22.741-19.528-19.045-19.527-19.042 26.212-26.309 26.213-26.307 80.002-63.723 80-63.722.16-2.594.163-2.594-7.709 1.126-7.708 1.127-93.528 10.197-93.528 10.196-38.541.006L0 323.55v-53.253l34.43-.627 34.431-.627 99.695 10.753 99.694 10.752 5.653 1.034 5.653 1.032v-5.266l-43.5-34.829-43.498-34.83-29.76-23.472-29.763-23.475-32.087-30.784-32.087-30.784-.524-1.274-.524-1.272 19.542-19.46 19.54-19.46 23.824 23.602 23.824 23.601 42.369 52.417 42.369 52.417 24.673 30.586 24.673 30.587.676-2.029.676-2.027-10.351-97.127-10.35-97.127V.828h55.5l.057 33.403z" clip-rule="evenodd"/></mask><path fill="#fff" fill-rule="evenodd" stroke="#fff" stroke-width="4.111" d="m324.835 34.23.06 33.404-11.653 105.4-11.655 105.401 1.318 1.318 1.317 1.315.672-.855.67-.857 64.927-81.195 64.927-81.194 24.856-24.644 24.856-24.644 20.033 20.078 20.031 20.081-28.891 28.202-28.89 28.205-13.248 10.582-13.248 10.582-63.723 50.78-63.722 50.781-.66 2.851-.661 2.853 5.8-1.053 5.799-1.052 100.667-11.26 100.667-11.259H592v55.5h-79.601l-92.268-10.232-92.27-10.235-6.68-.941-6.681-.944v5.186l60.125 48.139 60.125 48.14 23.639 19.86 23.639 19.863 21.544 21.775 21.544 21.774-19.303 19.386-19.306 19.386-26.192-25.037-26.192-25.036-15.914-20.556-15.912-20.555-16.985-20.556-16.985-20.556-32.566-40.924-32.567-40.924-.61 3.129-.611 3.128 11.403 103.206 11.402 103.205v69.597h-55.5l.004-41.625.006-41.625 10.272-95.464 10.273-95.466v-5.719l-1.837.687-1.836.684-29.357 37-29.356 37-9.209 11.306-9.211 11.305-27.158 33.917-27.158 33.917-24.426 22.74-24.424 22.741-19.528-19.045-19.527-19.042 26.212-26.309 26.213-26.307 80.002-63.723 80-63.722.16-2.594.163-2.594-7.709 1.126-7.708 1.127-93.528 10.197-93.528 10.196-38.541.006L0 323.55v-53.253l34.43-.627 34.431-.627 99.695 10.753 99.694 10.752 5.653 1.034 5.653 1.032v-5.266l-43.5-34.829-43.498-34.83-29.76-23.472-29.763-23.475-32.087-30.784-32.087-30.784-.524-1.274-.524-1.272 19.542-19.46 19.54-19.46 23.824 23.602 23.824 23.601 42.369 52.417 42.369 52.417 24.673 30.586 24.673 30.587.676-2.029.676-2.027-10.351-97.127-10.35-97.127V.828h55.5l.057 33.403z" clip-rule="evenodd" mask="url(#a)"/></svg>